<svg width="1600" height="620" viewBox="0 0 1600 620" fill="none" xmlns="http://www.w3.org/2000/svg">
<path d="M1681.86 1420.56C1677.32 1407.93 1668.43 1397.93 1661.22 1386.95C1646.29 1364.17 1623.84 1349.25 1603.04 1332.61C1587.97 1320.57 1571.97 1309.75 1557.74 1296.59C1541.89 1281.92 1529.85 1264.75 1519.85 1245.67C1509.97 1226.8 1501.43 1207.21 1488.98 1189.59C1473.89 1168.25 1454.07 1153.02 1431.28 1141.31C1375.89 1112.86 1330.91 1073.57 1299.68 1018.97C1286.6 996.108 1272.82 973.545 1254.83 953.842C1238.48 935.933 1218.6 924.256 1196.44 915.178C1173.35 905.705 1148.65 901.38 1125.69 891.595C1095.8 878.866 1070.8 860.002 1050.01 834.955C1033.63 815.203 1016.33 796.175 991.018 787.163C975.576 781.654 959.59 779.286 943.358 778.184C922.554 776.786 901.684 776.687 880.913 774.154C844.65 769.714 812.844 755.965 785.576 731.412C756.648 705.345 729.15 677.485 695.288 657.372C672.675 643.936 649.996 630.615 629.521 613.889C615.443 602.393 605.823 587.954 598.998 571.212C595.643 562.989 591.4 555.194 584.525 548.78C578.374 543.04 571.632 541.659 564.708 544.224C548.624 550.178 539.134 562.101 540.911 577.708C542.193 588.941 550.318 595.355 558.82 601.637C572.454 611.702 588.801 617.014 602.418 627.013C631.528 648.376 656.624 673.769 677.099 703.47C706.472 746.098 747.619 771.918 795.444 788.956C813.962 795.551 833.039 799.925 852.232 803.247C862.428 805.007 872.986 805.895 883.364 807.096C924.626 811.898 963.225 823.476 995.196 851.993C1015.33 869.935 1035.34 888.026 1059.09 901.561C1078.56 912.662 1099.35 919.668 1120.81 925.194C1145.28 931.509 1170.11 937.331 1191.35 951.655C1217.2 969.121 1236.44 993.099 1252.15 1019.72C1274.78 1058.08 1300.5 1093.93 1334.47 1123.07C1356.55 1142 1380.21 1158.99 1405.11 1173.97C1441.73 1196.02 1466.26 1227.81 1484.08 1266.02C1497.09 1293.89 1513.47 1319.83 1536.5 1340.83C1550.36 1353.48 1565.51 1364.66 1580.97 1375.17C1608.23 1393.7 1628.59 1418.65 1648.07 1444.47C1658.41 1458.19 1668.49 1472 1681.06 1483.81" stroke="#B5B5B5" stroke-linecap="round" stroke-linejoin="round"/>
<path d="M1455.12 2.66113C1444.79 28.3003 1430.12 51.0943 1411.75 71.8161C1400.75 84.2328 1388.91 95.5805 1376.23 106.139C1354.21 124.509 1328.29 134.985 1300.63 140.445C1263.82 147.698 1232.23 164.209 1204.5 189.075C1185.85 205.801 1165.77 220.29 1141.32 227.805C1104.81 239.038 1068.92 237.64 1032.79 225.47C1008.55 217.313 988.223 203.646 968.57 187.743C951.515 173.929 933.869 160.92 910.516 157.45C892.804 154.819 876.834 157.713 861.211 164.604C845.571 171.511 832.118 182.02 820.145 194.108C803.815 210.603 785.642 224.533 765.002 235.042C746.764 244.317 727.226 250.172 707.573 255.764C683.612 262.572 659.617 269.216 638.451 283.458C607.582 304.246 591.942 333.52 589.442 369.849C587.781 393.958 596.794 415.305 610.608 434.728C621.084 449.48 635.688 459.166 650.786 468.541C663.219 476.254 674.599 485.48 683.743 497.156C694.153 510.461 696.62 526.299 698.495 542.35C699.498 550.902 700.271 559.552 702.722 567.775C707.195 582.823 718.691 592.28 730.499 601.555C746.698 614.284 764.772 623.593 783.044 632.868C805.459 644.265 825.655 659.247 845.62 674.525C863.809 688.455 883.544 699.556 906.355 704.161C921.008 707.121 935.859 708.174 950.709 707.335C973.701 706.036 996.824 702.944 1019.68 705.312C1057.67 709.243 1090.65 723.584 1115.27 754.897C1128.54 771.787 1140.46 789.729 1154.51 805.978C1176.76 831.699 1204.77 848.342 1237.38 857.881C1274.92 868.867 1307.45 888.075 1332.71 918.566C1347.45 936.344 1359.08 956.096 1370.66 975.979C1383.48 998.049 1396.74 1019.82 1415.5 1037.86C1430.7 1052.49 1448.26 1062.52 1467.39 1070.64C1485.91 1078.5 1504.49 1086.4 1520.81 1098.5C1540.85 1113.37 1556.3 1132.15 1567.66 1154.33C1579.37 1177.21 1591.67 1199.77 1608.78 1219.2C1628.63 1241.76 1652.85 1258.08 1681.02 1268.52" stroke="#B5B5B5" stroke-linecap="round" stroke-linejoin="round"/>
<path d="M931.83 251.57C914.068 250.665 902.013 261.421 889.942 272.111C884.581 276.864 879.663 282.094 874.45 287.011C861.836 298.885 845.982 301.796 829.964 304.049C806.462 307.338 782.78 309.509 760.151 317.304C734.002 326.317 716.882 344.243 709.333 370.72C704.432 387.939 710.78 403.135 719.858 417.526C727.835 430.189 740.893 437.129 752.027 446.125C767.206 458.41 775.807 473.869 778.241 493.078C779.623 504.015 779.787 515.083 781.613 525.92C784.129 540.886 791.809 552.053 806.035 559.026C814.389 563.121 822.875 566.756 831.658 569.305C850.653 574.814 865.684 586.228 880.124 599.006C891.537 609.104 902.523 619.613 916.124 627.161C933.606 636.881 951.696 638.262 970.412 633.411C985.41 629.53 999.883 623.691 1014.85 619.728C1037.03 613.857 1058.82 616.159 1080.58 623.543C1115.45 635.368 1141.37 658.606 1164.34 686.12C1188.76 715.344 1210.44 746.888 1238.27 773.201C1249.6 783.924 1262.44 792.065 1277.67 796.291C1285.68 798.511 1291.95 796.028 1297.39 790.453C1302.59 785.108 1302.26 779.122 1299.99 772.362C1294.76 756.755 1283.99 744.931 1273.49 733.057C1255.44 712.614 1237.05 692.468 1224.35 668.046C1215.67 651.37 1211.25 633.296 1213.12 614.712C1215 596.095 1223.48 579.748 1235.73 565.325C1247.44 551.543 1257.61 537.071 1264.23 519.572C1271.27 500.988 1264.25 478.967 1235.82 473.359C1226.8 471.583 1217.56 471.304 1208.68 468.524C1188.78 462.324 1184.39 443.461 1194.88 427.475C1201.61 417.246 1210.88 409.056 1220.18 401.063C1230.04 392.577 1240.22 384.107 1247 372.974C1250.29 367.579 1254.28 360.952 1249.12 353.337C1243.84 345.558 1236.46 346.611 1229.25 347.071C1225.6 347.302 1221.87 348.946 1218.56 350.985C1206.67 358.287 1193.85 363.764 1180.71 368.023C1164.69 373.22 1148.32 376.263 1131.43 370.03C1119.72 365.704 1111.75 357.728 1105.2 347.696C1100.56 340.592 1097.08 332.846 1093.05 325.428C1080.25 301.845 1061.49 287.488 1034.58 283.475C1017.5 280.926 1000.44 277.768 984.407 270.565C976.003 266.799 968.06 262.128 959.952 257.885C951.417 253.428 942.947 251.093 933.524 251.586" stroke="#B5B5B5" stroke-linecap="round" stroke-linejoin="round"/>
<path d="M551.484 357.548C552.405 368.83 553.425 380.112 555.645 391.213C560.776 416.901 564.411 443.05 578.571 465.992C586.596 478.984 598.536 487.684 610.607 496.417C632.332 512.139 649.239 531.184 654.353 558.78C655.718 566.181 658.481 573.4 662.264 580.242C671.803 597.526 686.735 608.989 702.639 619.613C719.2 630.698 737.372 638.987 754.262 649.397C773.849 661.485 790.838 677.059 807.07 693.439C818.089 704.556 830.029 714.457 843.777 722.565C865.091 735.129 887.787 741.675 912.127 743.648C935.398 745.54 958.685 743.5 981.956 743.796C1017.86 744.24 1049.61 755.588 1074.76 782.28C1085.24 793.397 1092.97 806.669 1102.59 818.51C1123.93 844.823 1150.3 863.555 1182.4 874.262C1202.38 880.922 1222.15 888.274 1241.51 896.529C1270.09 908.716 1291.29 929.75 1308.9 954.764C1326.93 980.371 1341.15 1008.41 1359.73 1033.69C1384.96 1068.01 1417.71 1092.09 1456.73 1108.47C1485.53 1120.56 1508.24 1140.31 1524.92 1166.72C1537.42 1186.54 1545.92 1208.62 1558.73 1228.24C1578.28 1258.22 1605.65 1279.78 1635.86 1298.15C1650.47 1307.04 1665.02 1316.02 1676.94 1328.53C1679.18 1330.88 1682.42 1332.69 1681.88 1336.74" stroke="#B5B5B5" stroke-linecap="round" stroke-linejoin="round"/>
<path d="M499.73 552.233C491.441 571.376 489.303 590.355 501.374 608.922C509.828 621.931 521.636 630.96 534.99 638.607C559.938 652.899 584.262 668.358 604.753 688.734C622.235 706.118 638.106 725.063 653.335 744.469C687.723 788.298 731.485 816.963 786.398 828.393C806.018 832.472 825.918 834.577 845.538 838.326C883.528 845.579 919.183 858.768 951.696 880.625C983.059 901.709 1015.97 920.342 1050.09 936.788C1072.28 947.478 1095.86 953.941 1119.15 961.309C1152.9 971.966 1179.31 992.457 1200.52 1020.45C1220.55 1046.86 1237.66 1075.34 1258.69 1101.08C1285.63 1134.02 1316.86 1162.08 1351.58 1186.5C1369.64 1199.2 1387.96 1211.66 1404.12 1226.76C1424.8 1246.05 1439.84 1269.36 1451.93 1294.83C1460.81 1313.56 1469.79 1332.38 1482.31 1349.04C1498.88 1371.11 1519.89 1388.67 1543.14 1403.13C1566.74 1417.81 1585.85 1437.27 1602.69 1458.6C1624.7 1486.46 1648.1 1512.44 1677.8 1532.23C1679.82 1533.58 1681.25 1534.94 1681.86 1537.23" stroke="#B5B5B5" stroke-linecap="round" stroke-linejoin="round"/>
<path d="M1681.04 1156.85C1661.8 1143.05 1649.15 1124.06 1638.25 1103.5C1630.37 1088.63 1622.23 1073.83 1610.39 1061.56C1591.08 1041.55 1567.35 1028.8 1541.4 1019.63C1524.36 1013.61 1507.17 1007.74 1492.14 997.408C1469.36 981.768 1452.85 960.537 1441.31 935.785C1422.43 895.312 1397.45 859.098 1369.04 824.809C1350.3 802.163 1333.8 777.691 1317.26 753.384C1303.59 733.287 1288.72 714.029 1276.72 692.764C1264.12 670.414 1256 647.028 1255.49 621.225C1255.09 600.7 1262.06 582.577 1272.65 565.309C1285.5 544.373 1298.94 523.783 1310.48 502.074C1313.49 496.417 1316.3 490.595 1317.14 484.033C1319.02 469.149 1310.86 460.269 1299.03 453.657C1289.82 448.51 1279.51 446.421 1269.45 443.872C1244.5 437.557 1238.63 421.95 1253.79 400.998C1264.88 385.687 1277.21 371.214 1285.96 354.258C1289.05 348.256 1290.68 341.743 1291.47 335.313C1293.49 318.719 1279.41 309.641 1265.37 307.47C1250.93 305.233 1237.58 309.822 1224.29 314.772C1208.3 320.725 1192.76 328.011 1175.84 331.267C1155.87 335.115 1135.53 331.744 1122.24 312.469C1110.84 295.925 1097.83 280.712 1078.17 272.687C1069.27 269.052 1060.09 266.552 1050.91 264.941C1014.37 258.51 981.513 244.63 953.144 220.389C943.079 211.788 930.547 207.495 917.835 205.867C903.527 204.042 890.732 209.666 880.108 219.534C867.905 230.865 857.56 244.219 843.894 253.938C830.227 263.674 814.456 267.473 797.96 269.759C762.783 274.627 727.588 279.364 697.624 301.516C676.787 316.91 660.078 334.77 654.207 360.804C648.484 386.131 654.963 408.086 672.182 427.41C682.658 439.169 696.785 446.405 707.656 457.654C728.148 478.836 740.564 503.637 739.314 533.288C738.311 557.053 750.218 570.752 769.081 581.952C790.099 594.418 812.959 603.348 833.336 616.982C848.416 627.079 862.872 638.082 878.381 647.587C905.204 664 933.738 673.72 965.511 672.092C977.747 671.467 989.736 668.984 1001.64 666.352C1047.48 656.238 1088.53 663.162 1123.41 697.435C1145.69 719.308 1164.39 743.78 1182.56 768.942C1196.44 788.151 1213.22 804.81 1234.12 816.734C1249.05 825.236 1265.71 829.496 1281.86 834.512C1330.15 849.543 1363.63 881.119 1387.81 924.306C1401.39 948.58 1414.83 972.92 1431.95 995.106C1449.51 1017.87 1472.18 1032.68 1498.62 1042.67C1516.89 1049.56 1534.67 1057.3 1551.35 1067.9C1573.65 1082.06 1588.63 1102.04 1600.42 1124.83C1611.69 1146.62 1622.21 1168.79 1639.94 1186.4C1650.55 1196.95 1662.29 1205.84 1676.07 1211.91C1678.38 1212.93 1681.45 1213.36 1681.85 1216.8" stroke="#B5B5B5" stroke-linecap="round" stroke-linejoin="round"/>
<path d="M1.07471 562.924C5.05462 569.338 11.781 572.989 16.7641 578.465C31.4832 594.681 47.9949 608.38 67.4668 619.07C91.2311 632.112 105.802 653.524 115.407 678.703C120.159 691.185 124.468 703.997 134.089 714.144C152.509 733.583 175.96 741.954 201.517 746.115C211.122 747.677 221.022 748.072 230.232 751.18C249.095 757.545 260.706 771.589 269.883 788.742C279.405 806.57 284.947 825.68 291.115 844.691C296.114 860.151 301.673 875.577 310.948 888.947C322.428 905.492 339.696 914.044 358.378 920.408C372.308 925.145 386.665 929.075 398.704 938.318C422.994 956.984 433.438 980.946 427.435 1011.47C418.209 1058.34 392.208 1093.75 353.56 1120.82C341.012 1129.6 327.279 1136.39 314.863 1145.34C295.111 1159.56 281.905 1178.94 269.521 1199.48C248.487 1234.38 217.026 1241.94 179.398 1233.09C170.829 1231.09 162.376 1227.4 157.179 1219.31C150.897 1209.53 151.637 1199.13 155.617 1188.97C159.86 1178.15 166.701 1168.96 175.22 1160.98C197.62 1139.99 209.79 1113.73 214.658 1083.78C216.417 1072.91 216.483 1061.86 216.944 1050.92C217.996 1025.79 226.943 1003.62 240.116 982.738C248.75 969.039 256.809 954.978 263.124 940.028C268.354 927.645 269.636 914.406 267.794 901.463C265.574 885.839 263.617 870.15 260.788 854.575C255.476 825.203 243.191 800.732 215.48 786.44C205.464 781.276 194.758 778.135 183.46 777.395C155.864 775.586 130.455 769.386 111.838 746.279C102.645 734.866 94.8164 722.975 89.7839 709.194C78.6994 678.9 60.28 654.61 32.4042 637.555C21.9446 631.158 12.5704 622.951 2.75219 615.501C1.78188 614.778 1.27206 613.528 1.09115 612.245" stroke="#B5B5B5" stroke-linecap="round" stroke-linejoin="round"/>
<path d="M403.62 1.01611C404.919 1.36148 406.038 1.52594 406.136 3.483C407.205 23.2181 412.353 42.3282 415.198 61.8002C416.876 73.2794 418.783 84.8244 418.981 96.3201C419.573 131.07 432.105 160.805 453.583 187.611C462.595 198.86 474.354 207.61 481.722 220.322C492.395 238.775 496.342 258.411 494.007 279.511C491.08 305.989 484.518 331.924 481.837 358.386C480.061 375.933 481.837 393.596 485.06 410.914C488.317 428.379 491.491 445.746 493.431 463.475C498.299 507.764 479.419 539.998 444.554 564.371C433.108 572.38 419.31 575.011 405.248 575.241C392.848 575.439 380.563 574.929 368.212 578.267C351.585 582.757 340.007 592.542 330.321 606.324C317.658 624.349 306.968 643.623 293.022 660.908C276.444 681.465 255.574 691.909 230.297 696.102C214.723 698.684 199.066 698.997 184.38 694.03C163.033 686.81 145.732 674.015 135.585 652.554C130.043 640.86 124.418 629.118 117.79 617.918C107.989 601.374 95.4898 588.201 77.5638 579.978C60.6081 572.199 45.3463 562.052 34.5577 545.803C26.3677 533.469 16.0068 522.68 2.76781 515.214C1.76461 514.638 1.28768 513.257 1.09033 511.99" stroke="#B5B5B5" stroke-linecap="round" stroke-linejoin="round"/>
<path d="M1.07471 1321.16C29.9866 1319.21 56.6783 1311.81 77.4659 1289.95C88.2873 1278.58 99.2074 1267.04 113.713 1260.59C124.715 1255.69 136.638 1254.38 148.956 1256.14C169.941 1259.11 190.219 1265.63 211.368 1267.85C252.615 1272.17 281.181 1260.54 301.097 1222.67C309.041 1207.57 316.951 1192.16 328.167 1179.15C339.614 1165.86 354.201 1156.11 369.101 1147C388.392 1135.21 407.913 1123.63 423.257 1106.69C451.035 1076.02 469.849 1040.63 473.927 999.103C476.279 975.174 469.701 953.268 452.252 934.898C433.24 914.883 409.525 902.105 386.386 888.192C359.365 871.943 337.361 850.909 323.858 821.734C310.685 793.25 303.581 763.417 306.163 732.186C307.873 711.497 317.576 693.324 329.499 676.171C342.13 658.015 355.78 640.566 375.038 629.777C407.519 611.572 441.134 611.473 469.964 639.513C495.11 663.968 523.314 684.065 552.276 703.438C579.559 721.677 602.567 744.537 622.056 770.817C642.958 798.989 668.071 822.688 698.71 839.446C721.751 852.06 747.373 858.786 773.292 863.605C807.072 869.887 839.536 880.528 871.014 894.096C892.459 903.355 914.02 912.252 935.909 920.393C942.603 922.876 948.934 926.396 954.082 931.724C958.029 935.803 959.805 940.851 957.881 945.637C955.661 951.18 950.447 954.485 944.165 954.732C932.077 955.192 920.894 951.212 909.645 947.413C880.618 937.595 853.268 923.764 824.965 912.236C794.359 899.77 763.375 887.978 730.549 882.567C694.845 876.696 661.18 882.995 632.186 904.917C606.202 924.554 578.688 942.101 553.394 962.494C531.965 979.762 517.706 1003.13 507.016 1028.67C496.524 1053.74 489.386 1080.05 476.937 1104.41C464.553 1128.61 447.137 1146.85 422.567 1158.61C404.904 1167.06 387.175 1175.4 372.308 1188.79C359.842 1200.01 349.81 1212.77 341.982 1227.5C332.295 1245.74 322.822 1264.44 308.153 1279.09C285.918 1301.3 259.423 1312.38 226.976 1306.61C206.073 1302.89 185.121 1298.9 163.758 1298.12C137.609 1297.17 115.604 1306.84 98.2371 1325.47C78.1402 1347.05 52.9615 1354.88 24.9377 1357.44C17.4877 1358.12 9.97194 1359.15 2.75219 1361.44" stroke="#B5B5B5" stroke-linecap="round" stroke-linejoin="round"/>
<path d="M1.07471 143.965C10.5804 153.043 22.1255 159.49 33.2922 165.821C58.8163 180.294 86.4454 188.615 116.064 191.082C136.276 192.76 153.972 185.869 171.898 179.126C184.479 174.39 197.093 170.87 210.563 171.101C221.104 171.265 231.005 175.146 240.856 177.975C258.256 182.991 275.507 184.076 293.532 183.715C331.72 182.925 364.513 195.72 385.218 229.599C394.444 244.68 396.418 262.589 393.671 280.318C390.826 298.655 383.87 316.252 381.863 334.589C380.202 349.703 378.738 365.047 380.35 380.572C382.603 402.248 384.346 424.384 373.147 444.579C361.026 466.42 342.311 478.524 317.379 481.731C302.298 483.671 286.839 481.451 272.054 487.865C260.591 492.832 250.444 499.213 240.955 507.058C217.503 526.431 198.574 525.197 173.609 508.686C162.82 501.548 154.301 491.368 142.411 485.645C134.944 482.06 126.968 479.938 119.354 476.748C97.0201 467.406 80.8373 451.865 69.1278 430.748C60.0168 414.335 52.5504 397.133 46.6956 379.585C38.0287 353.617 21.6979 333.109 5.18618 312.371C3.70605 310.513 1.46941 309.23 1.09115 306.598" stroke="#B5B5B5" stroke-linecap="round" stroke-linejoin="round"/>
<path d="M355.959 1.83789C357.012 2.46283 358.804 2.0188 359.216 3.48248C367.208 32.8384 379.559 60.8129 386.401 90.5471C391.038 110.677 395.66 130.774 401.58 150.64C407.78 171.51 417.023 190.686 428.502 208.694C440.59 227.64 448.583 247.902 452.71 269.676C454.816 280.777 452.628 292.273 450.885 303.258C449.487 312.008 448.073 320.872 446.56 329.654C444.882 339.324 444.668 349.258 444.52 359.191C444.175 381.82 450.26 403.282 455.441 424.892C459.141 440.319 462.479 455.794 461.065 471.73C458.22 503.8 438.978 531.149 402.008 538.451C388.506 541.116 375.053 540.556 361.732 539.652C339.332 538.122 322.393 548.023 306.638 562.051C292.939 574.238 283.696 589.779 273.894 604.86C264.652 619.069 255.409 633.245 240.114 641.732C216.498 654.822 194.428 649.708 172.719 636.14C153.017 623.806 141.866 605.468 135.14 584.237C126.868 558.121 108.465 542.629 84.0098 533.468C58.4857 523.913 38.3888 509.49 28.8009 482.486C23.7355 468.211 15.1837 455.63 2.76699 446.223C1.79669 445.499 1.28686 444.249 1.10596 442.966" stroke="#B5B5B5" stroke-linecap="round" stroke-linejoin="round"/>
<path d="M1349.97 1.01645C1342.88 2.52947 1340.02 9.2394 1335.35 13.5153C1310.07 36.7534 1280.76 52.9526 1248.94 65.1061C1228.33 72.9837 1209.6 83.9531 1192.99 98.6722C1181.59 108.77 1170.05 118.621 1157.06 126.91C1136.53 140.034 1114.89 141.497 1092.03 136.547C1066.74 131.071 1045.19 116.861 1022.3 105.941C991.216 91.1235 959.327 78.5095 925.975 70.4675C911.289 66.9152 895.616 67.425 880.042 69.7603C845.407 74.9572 813.535 86.8805 783.981 105.366C765.2 117.125 748.113 131.021 733.098 147.286C705.222 177.481 670.932 196.312 631.166 205.505C617.697 208.613 604.063 210.866 590.1 210.537C566.089 209.962 545.417 200.735 525.024 188.598C498.267 172.662 486.787 146.859 475.917 120.118C463.697 90.0546 461.411 58.3962 461.28 26.4747C461.247 18.8274 462.234 11.0813 463.582 3.46689C463.927 1.49338 462.414 1.34536 461.115 1" stroke="#B5B5B5" stroke-linecap="round" stroke-linejoin="round"/>
<path d="M1.897 101.239C14.4123 108.591 27.7006 114.495 39.0483 124.017C46.5312 130.299 53.3398 137.157 60.1484 144.031C70.9533 154.935 83.6496 162.138 98.862 163.471C110.292 164.474 120.883 159.935 130.866 154.606C140.7 149.344 150.338 143.735 160.452 139.032C178.115 130.825 195.63 131.269 213.029 139.854C220.529 143.538 228.39 146.4 236.087 149.574C244.112 152.879 252.944 152.287 261.479 153.077C289.388 155.626 317.56 155.198 345.255 159.754C365.631 163.092 380.991 175.476 392.816 191.708C409.64 214.815 417.682 241.112 415.676 269.645C414.64 284.249 411.581 298.771 408.588 313.21C404.114 334.804 406.417 356.019 411.647 377.317C416.482 397.019 422.682 416.705 422.353 437.229C421.942 463.033 404.608 498.326 374.035 507.042C364.924 509.64 355.451 510.89 346.11 511.005C309.518 511.482 279.208 524.014 256.381 553.732C246.678 566.362 233.998 575.95 217.963 580.193C196.288 585.949 167.441 573.121 157.113 555.541C152.805 548.222 148.414 540.92 143.217 534.128C132.461 520.083 117.281 512.946 101.296 507.042C73.0913 496.599 52.4024 478.771 42.0086 449.58C32.3055 422.345 21.0894 395.703 1.07471 373.945" stroke="#B5B5B5" stroke-linecap="round" stroke-linejoin="round"/>
<path d="M1357.37 316.465C1358.34 292.339 1369.06 274.495 1390.08 261.979C1399.62 256.289 1407.28 247.622 1411.59 236.768C1416.01 225.618 1410.42 215.092 1398.45 212.132C1384.6 208.711 1370.94 210.356 1357.38 213.793C1337.21 218.908 1316.96 223.595 1299.73 236.57C1293.92 240.945 1288.16 245.468 1285.38 251.684C1281.19 261.058 1281.75 272.258 1293.21 278.014C1299 280.925 1305.32 283.014 1310.51 286.928C1323.88 296.993 1326.14 311.942 1320.36 332.861C1317.68 342.597 1312.9 351.56 1308.85 360.77C1306.06 367.135 1303.82 373.68 1303.26 380.521C1302.21 393.399 1305.02 403.809 1327.8 410.914C1336.74 413.709 1345.84 415.782 1354.16 420.649C1369.29 429.481 1378.5 445.73 1369.54 465.892C1365.71 474.493 1360 482.207 1353.26 488.949C1336.86 505.329 1323 523.634 1310.43 543.106C1299.36 560.275 1294.2 579.04 1293.51 599.055C1293.25 606.784 1291.95 614.349 1291.52 622.046C1289.78 653.195 1299.69 680.709 1317.19 705.805C1330.56 724.997 1345.95 742.627 1361.53 760.027C1392.91 795.073 1425.91 828.738 1452.64 867.698C1464.18 884.539 1472.09 903.435 1482.21 921.098C1496.48 945.981 1515.23 966.308 1540.56 980.254C1553.06 987.129 1566.72 991.026 1580.03 995.746C1601.64 1003.43 1622.2 1012.59 1639.25 1028.59C1646.9 1035.78 1653.26 1043.87 1658.76 1052.58C1666.39 1064.65 1676.11 1075.39 1681.86 1088.67" stroke="#B5B5B5" stroke-linecap="round" stroke-linejoin="round"/>
<path d="M1501.94 278.689C1491.11 281.913 1479.89 283.541 1469.08 286.88C1453.49 291.715 1438.92 299.115 1426.59 309.345C1408.32 324.508 1403.63 345.082 1413.2 370.704C1419.24 386.871 1429.5 400.899 1436.23 416.703C1443.41 433.577 1449.74 450.533 1443.63 469.281C1441.08 477.109 1437.06 484.099 1432.13 490.661C1422.64 503.275 1412.08 514.705 1400.29 525.378C1377.81 545.738 1359.03 569.157 1352.5 599.911C1347.43 623.725 1351.76 646.535 1362.38 668.03C1378.04 699.705 1399.24 727.515 1423.94 752.66C1439.84 768.86 1455.68 785.092 1469.91 802.804C1487.62 824.841 1498.01 850.777 1507.44 876.827C1522.98 919.849 1552.96 946.492 1595.57 960.586C1614.94 967 1634.81 972.197 1652.34 983.429C1662.29 989.794 1671.42 997.096 1680.22 1004.87" stroke="#B5B5B5" stroke-linecap="round" stroke-linejoin="round"/>
<path d="M1437.05 304.148C1445.76 330.165 1462.39 351.775 1476.49 374.8C1486.57 391.278 1495.71 407.905 1499.77 427.311C1504.15 448.296 1499.85 467.439 1492.11 486.533C1484.53 505.248 1472.62 520.954 1458.36 534.95C1440.22 552.777 1423.43 571.723 1410.01 593.366C1390.88 624.202 1392.56 655.12 1411.64 685.282C1428.07 711.266 1450.04 731.955 1473.82 751.279C1493.97 767.643 1515.56 782.839 1528.39 806.817C1537.02 822.967 1544.01 839.659 1549.55 857.026C1557.81 882.896 1572.38 904.358 1595.73 918.386C1612.33 928.352 1630.71 935.013 1648.94 941.772C1659.71 945.768 1670.32 950.39 1680.23 956.376C1681.3 957.017 1681.63 957.84 1681.85 958.876" stroke="#B5B5B5" stroke-linecap="round" stroke-linejoin="round"/>
<path d="M1681.86 449.546C1682.4 447.326 1681.25 445.171 1680.12 443.888C1659.48 420.239 1636.29 399.369 1606.18 389.074C1581.64 380.687 1558.11 387.791 1546.4 407.707C1538.83 420.584 1538.37 435.057 1538.91 449.546C1539.49 464.906 1544.77 479.461 1546.58 494.69C1550.01 523.503 1540.77 546.478 1519.26 565.44C1502.26 580.422 1483.74 593.858 1469.92 612.196C1449.66 639.101 1448.43 662.339 1466.78 690.955C1479.17 710.279 1496.73 724.998 1514.28 739.52C1529.11 751.788 1544.64 763.268 1558.53 776.589C1573.01 790.469 1582.38 807.918 1588.91 826.634C1599.93 858.21 1617.23 884.655 1646.52 902.203C1656.91 908.436 1668.01 913.008 1679.44 916.823C1681.12 917.382 1681.52 918.106 1681.86 919.405" stroke="#B5B5B5" stroke-linecap="round" stroke-linejoin="round"/>
<path d="M1029.58 373.155C1015.98 340.066 989.325 324.705 955.628 319.903C933.87 316.795 913.987 322.535 896.357 336.004C895.238 336.859 893.38 337.467 892.426 338.684C877.641 357.614 858.005 371.149 839.849 386.345C827.958 396.294 822.531 409.385 821.626 424.894C819.62 459.332 837.875 483.622 861.212 505.364C881.062 523.865 905.402 534.292 931.058 541.298C945.661 545.278 960.841 548.797 976.152 547.136C1002.71 544.258 1022.56 530.904 1031.89 505.347C1047.63 462.193 1049.94 418.76 1031.28 375.573C1030.87 374.619 1030.75 373.879 1029.57 373.961" stroke="#B5B5B5" stroke-linecap="round" stroke-linejoin="round"/>
<path d="M1681.86 508.701C1681.48 501.58 1676.38 496.712 1672.63 491.597C1663.62 479.345 1655.6 466.386 1645.07 455.137C1635.83 445.253 1624.25 443.131 1612.99 445.943C1601.6 448.789 1596.28 458.969 1593.71 470.843C1590.85 484.032 1592.77 497.205 1591.79 510.346C1589.99 534.538 1582.38 556.098 1567.64 575.208C1557.2 588.743 1545.11 600.815 1533.24 613.1C1514.41 632.588 1509.61 655.678 1518.49 681.169C1523.59 695.806 1534.49 706.414 1546.4 715.607C1562.89 728.353 1579.8 740.506 1594.86 755.061C1612.64 772.247 1625.04 793.166 1634.64 815.286C1644.74 838.491 1656.45 859.64 1677.7 874.326C1679.05 875.264 1680.79 876.3 1681.04 878.372" stroke="#B5B5B5" stroke-linecap="round" stroke-linejoin="round"/>
<path d="M1404.19 2.66113C1394.37 18.0709 1384.75 33.4808 1372.32 47.1802C1350.02 71.7504 1322.82 87.0944 1290.83 94.6924C1261.55 101.649 1233.61 111.813 1208.65 129.147C1190.67 141.629 1174.79 156.644 1157.76 170.294C1142.78 182.316 1125.74 190.112 1106.78 190.424C1085.91 190.769 1065.73 185.54 1046.79 176.05C1020.79 163.025 995.854 148.109 970.527 133.899C943.309 118.654 914.907 113.424 884.137 117.519C861.359 120.545 838.96 123.95 817.531 133.077C799.786 140.642 785.149 152.286 770.841 164.555C748.014 184.109 726.996 205.85 700.19 220.454C688.858 226.621 677.264 231.851 664.814 235.157" stroke="#B5B5B5" stroke-linecap="round" stroke-linejoin="round"/>
<path d="M501.375 1.01611C498.349 13.4986 493.596 25.5698 493.909 38.8088C494.698 72.3913 497.889 104.675 524.202 130.182C542.095 147.533 561.501 160.936 585.956 167.103C610.839 173.369 633.041 167.301 654.158 154.604C675.883 141.53 693.957 124.031 711.685 106.171C732.769 84.9231 755.514 65.6321 783.225 53.7746C819.834 38.1016 857.281 24.5009 897.36 20.9157C917.67 19.1066 937.685 22.5931 957.321 28.1025C990.542 37.4273 1021.49 52.2451 1052.64 66.6682C1068.61 74.0688 1084.53 81.4859 1101.85 85.8276C1132.36 93.4914 1159.38 87.1433 1184.04 68.395C1206.41 51.3899 1226.48 31.3917 1250.6 16.6562C1259.5 11.2126 1267.29 3.86125 1277.7 1.03256" stroke="#B5B5B5" stroke-linecap="round" stroke-linejoin="round"/>
<path d="M324.745 1.01611C325.979 1.64106 327.623 1.42726 328.084 3.46655C332.606 23.8101 339.875 43.3479 345.352 63.4283C349.43 78.3941 348.427 93.3269 344.234 107.734C339.662 123.472 327.015 131.695 311.588 133.899C274.19 139.244 240.032 132.353 212.189 104.543C203.407 95.7774 195.217 86.5841 182.751 82.0451C172.917 78.4599 164.628 80.1044 156.421 84.8902C151.718 87.6367 147.327 91.0574 143.265 94.692C125.223 110.792 102.972 109.131 84.1745 97.7673C69.4554 88.8701 56.9072 76.8317 42.9611 66.7668C31.4983 58.4945 18.4731 53.199 5.13551 48.8572C2.71796 48.0678 2.61928 46.8508 1.91211 45.3543" stroke="#B5B5B5" stroke-linecap="round" stroke-linejoin="round"/>
<path d="M1517.55 1.01611C1508.82 7.95628 1505.63 18.2514 1503.9 28.1847C1500.5 47.8376 1491.06 63.9381 1478.01 78.1474C1465.94 91.2877 1452.44 102.981 1438.82 114.559C1430.91 121.285 1423.78 129.179 1417.41 137.468C1401.46 158.272 1381.41 171.231 1354.92 174.635C1342.32 176.247 1329.66 177.333 1317.09 179.257C1284.63 184.24 1255.5 194.93 1233.89 221.819C1223.38 234.893 1214.63 249.333 1202.91 261.437" stroke="#B5B5B5" stroke-linecap="round" stroke-linejoin="round"/>
<path d="M1681.86 557.99C1681.27 550.754 1674.22 548.024 1670.88 542.564C1667.82 537.564 1663.23 533.206 1659.86 528.289C1655.2 521.513 1648.35 519.836 1641.65 520.543C1634.79 521.267 1631.77 527.648 1630.09 534.16C1627.79 543.123 1627 552.415 1624.32 561.263C1618.83 579.354 1608.6 594.862 1597.28 609.762C1591.85 616.916 1585.7 623.461 1580.74 631.043C1562.88 658.36 1571.53 678.785 1589.12 698.389C1597.73 707.96 1608.5 715.295 1618.74 722.943C1640.16 738.912 1655.19 759.683 1667.03 783.118C1672 792.953 1678.95 801.801 1681.86 812.672" stroke="#B5B5B5" stroke-linecap="round" stroke-linejoin="round"/>
<path d="M1052.59 336.183C1045.88 330.296 1040.6 323.092 1033.89 317.073C1020.46 305.051 1004.78 298.243 987.664 294.427C976.513 291.944 965.527 288.671 954.015 287.635C932.964 285.744 916.124 295.282 899.777 306.597C885.584 316.415 872.838 328.191 857.955 337.121C848.169 342.992 837.529 347.728 826.675 347.909C818.106 348.041 809.176 347.054 800.394 346.939C785.527 346.758 774.59 353.863 767.617 366.641C760.677 379.337 761.45 394.122 769.673 403.973C790.642 429.086 801.545 458.738 813.666 488.127C820.047 503.619 827.217 519.012 842.331 528.37C848.877 532.432 855.883 535.968 862.921 538.912C881.999 546.888 897.803 559.025 912.193 573.547C920.86 582.28 930.925 589.006 943.325 591.736C965.675 596.654 985.674 591.243 1004.13 578.53C1014.54 571.36 1025.14 565.176 1038.65 566.952C1044.85 567.774 1050.62 570.044 1056.69 571.212C1071.92 574.172 1083.94 566.854 1083.66 548.138C1083.59 543.747 1081.87 539.323 1080.67 534.948C1076.59 520.065 1074.3 505.198 1088.77 493.949C1094.91 489.18 1101.45 485.117 1108.28 481.269C1114.81 477.585 1121.78 474.839 1128.33 471.188C1144.01 462.471 1147.34 442.868 1127.4 432.194C1120.14 428.297 1112.14 426.027 1105.19 421.587C1089.33 411.456 1082.42 394.813 1074.89 378.828C1068.4 365.046 1062.71 350.902 1053.41 338.634" stroke="#B5B5B5" stroke-linecap="round" stroke-linejoin="round"/>
<path d="M1601.34 1.83789C1591.36 16.8366 1576.2 25.3226 1561.08 33.8581C1543.8 43.6269 1536.38 59.0532 1536.55 78.2291C1536.71 96.8459 1528.78 110.825 1514.29 121.827C1507.57 126.942 1499.94 130.659 1493.64 136.481C1482.77 146.513 1478.31 158.025 1482.13 172.727C1486.4 189.206 1492.03 205.471 1492.08 222.822" stroke="#B5B5B5" stroke-linecap="round" stroke-linejoin="round"/>
<path d="M288.599 1.01611C290.605 1.22991 290.984 2.31534 291.148 4.28885C292.743 24.6982 298.779 44.2688 302.545 64.2671C305.242 78.5421 299.667 89.5773 286.905 92.7843C279.307 94.692 271.429 92.0113 263.963 89.7089C234.706 80.6965 209.379 65.1551 187.522 43.7755C178.033 34.5 167.129 27.5762 153.085 29.8951C143.349 31.5068 135.043 36.8517 126.722 42.0158C118.795 46.9331 111.592 53.1661 101.313 53.7581C85.6564 54.6627 74.3745 46.3904 63.6025 37.082C56.7116 31.1286 50.0017 24.912 42.93 19.1559C31.2369 9.65021 17.9322 3.74613 2.71973 2.6607" stroke="#B5B5B5" stroke-linecap="round" stroke-linejoin="round"/>
<path d="M1200.46 1.01645C1196.33 1.88808 1193.09 4.15761 1189.7 6.65739C1169.01 21.9192 1146.14 31.2769 1119.95 29.6652C1100.93 28.4975 1082.85 22.9059 1064.86 16.7716C1048.81 11.2951 1033.68 2.87483 1016.44 1" stroke="#B5B5B5" stroke-linecap="round" stroke-linejoin="round"/>
<path d="M612.27 1.01611C599.114 12.8736 592.223 27.7243 592.716 45.3707C593.012 55.6001 603.291 65.8294 621.299 58.511C633.009 53.7581 641.396 44.9925 649.257 35.5361C659.059 23.7279 669.124 12.1829 681.277 2.6607C682.264 1.88775 683.284 1.21346 684.567 1.01611" stroke="#B5B5B5" stroke-linecap="round" stroke-linejoin="round"/>
<path d="M186.731 1.01611C199.641 4.76578 207.782 14.9129 216.087 24.2213C222.797 31.7371 228.849 39.8613 236.019 47.0317C241.479 52.4918 247.959 54.9587 255.738 54.4653C264.109 53.939 267.941 48.8079 265.573 40.4534C263.616 33.579 259.899 27.3953 257.399 20.7348C255.195 14.8636 252.63 9.09105 252.465 2.6607" stroke="#B5B5B5" stroke-linecap="round" stroke-linejoin="round"/>
<path d="M1322.86 580.176C1310.73 617.607 1314.16 653.524 1333.64 687.732C1336.19 692.205 1337.78 697.32 1341.76 700.922" stroke="#B5B5B5" stroke-linecap="round" stroke-linejoin="round"/>
<path d="M1512.67 216.393C1493.87 222.494 1474.36 227.362 1458.41 240.091C1445.16 250.666 1435.67 263.379 1434.48 281.14C1434.01 288.261 1435.31 294.955 1437.05 301.681" stroke="#B5B5B5" stroke-linecap="round" stroke-linejoin="round"/>
<path d="M1579.17 264.71C1583.58 273.18 1586.61 282.225 1592.13 290.3C1601.89 304.558 1615.73 312.732 1631.8 314.327C1649.05 316.021 1666.35 312.617 1681.04 301.68C1681.83 301.088 1682.13 300.578 1681.86 300.036" stroke="#B5B5B5" stroke-linecap="round" stroke-linejoin="round"/>
<path d="M1630.93 121.78C1614.02 125.809 1597.38 131.055 1582.61 140.084C1567.23 149.475 1561.45 164.983 1561.15 182.564C1561.03 189.142 1560.54 195.753 1561.92 202.282" stroke="#B5B5B5" stroke-linecap="round" stroke-linejoin="round"/>
<path d="M1681.86 199.815C1681.35 210.999 1673.01 217.544 1666.09 224.287C1652.06 237.953 1634.23 245.551 1616.14 252.393C1580.03 266.076 1542.35 273.279 1504.41 279.496" stroke="#B5B5B5" stroke-linecap="round" stroke-linejoin="round"/>
<path d="M551.485 1.01611C544.973 5.98278 543.805 13.8439 541.832 20.7841C534.711 45.7983 533.675 70.4343 549.841 93.0309C555.975 101.616 562.603 109.608 572.849 113.555" stroke="#B5B5B5" stroke-linecap="round" stroke-linejoin="round"/>
<path d="M1561.1 203.925C1565.31 218.135 1568.07 232.755 1573.34 246.668C1575.39 252.079 1577.78 257.407 1579.17 263.065" stroke="#B5B5B5" stroke-linecap="round" stroke-linejoin="round"/>
<path d="M119.37 1.01611C101.838 3.6639 84.3233 2.79227 66.792 1.01611" stroke="#B5B5B5" stroke-linecap="round" stroke-linejoin="round"/>
<path d="M812.712 1.01611C798.503 2.64426 786.053 9.30485 773.275 14.9787" stroke="#B5B5B5" stroke-linecap="round" stroke-linejoin="round"/>
<path d="M442.219 86.4521C443.782 98.4905 445.492 110.513 450.442 121.778" stroke="#B5B5B5" stroke-linecap="round" stroke-linejoin="round"/>
<path d="M1411.59 433.115C1412.51 442.769 1410.55 451.979 1407.48 461.04" stroke="#B5B5B5" stroke-linecap="round" stroke-linejoin="round"/>
<path d="M529.3 466.798C526.734 475.662 525.649 484.806 524.366 493.901" stroke="#B5B5B5" stroke-linecap="round" stroke-linejoin="round"/>
<path d="M435.658 45.3716C434.802 53.134 437.319 60.6663 437.352 68.3794C437.352 69.6293 438.717 69.8102 439.769 70.024" stroke="#B5B5B5" stroke-linecap="round" stroke-linejoin="round"/>
<path d="M522.723 277.045V301.698" stroke="#B5B5B5" stroke-linecap="round" stroke-linejoin="round"/>
<path d="M526.011 390.405C525.551 398.694 526.356 406.884 527.656 415.058" stroke="#B5B5B5" stroke-linecap="round" stroke-linejoin="round"/>
<path d="M522.722 314.821C522.788 319.821 521.818 324.705 521.258 329.623C520.93 332.501 519.565 336.102 522.722 338.635" stroke="#B5B5B5" stroke-linecap="round" stroke-linejoin="round"/>
<path d="M555.596 296.747C554.971 304.542 552.142 311.96 551.484 319.755" stroke="#B5B5B5" stroke-linecap="round" stroke-linejoin="round"/>
<path d="M1357.37 332.895C1356.38 341.117 1360.74 348.206 1362.3 355.902" stroke="#B5B5B5" stroke-linecap="round" stroke-linejoin="round"/>
<path d="M516.159 237.607C517.162 245.419 520.139 252.787 521.093 260.615" stroke="#B5B5B5" stroke-linecap="round" stroke-linejoin="round"/>
<path d="M521.094 507.879C516.72 515.28 515.437 524.226 509.599 530.887" stroke="#B5B5B5" stroke-linecap="round" stroke-linejoin="round"/>
<path d="M1395.16 393.695C1398.07 401.968 1403.75 408.579 1408.3 415.881" stroke="#B5B5B5" stroke-linecap="round" stroke-linejoin="round"/>
<path d="M455.359 138.208C459.027 145.428 462.628 152.68 465.211 160.394" stroke="#B5B5B5" stroke-linecap="round" stroke-linejoin="round"/>
<path d="M1398.43 474.198C1396.02 483.852 1387.18 488.769 1382 496.384" stroke="#B5B5B5" stroke-linecap="round" stroke-linejoin="round"/>
<path d="M1339.29 544.027C1334.52 550.474 1332.73 558.714 1326.98 564.568" stroke="#B5B5B5" stroke-linecap="round" stroke-linejoin="round"/>
<path d="M646.773 238.429C639.948 239.186 632.86 236.752 626.232 240.074" stroke="#B5B5B5" stroke-linecap="round" stroke-linejoin="round"/>
<path d="M756.862 21.5576C749.396 23.0542 744.61 29.9121 737.144 31.4087" stroke="#B5B5B5" stroke-linecap="round" stroke-linejoin="round"/>
<path d="M434.835 9.23926C435.213 15.8341 433.371 22.3466 434.013 28.9579" stroke="#B5B5B5" stroke-linecap="round" stroke-linejoin="round"/>
<path d="M610.625 124.247C603.85 125.036 597.534 122.207 590.907 121.78" stroke="#B5B5B5" stroke-linecap="round" stroke-linejoin="round"/>
<path d="M528.479 431.472C529.614 438.001 529.252 444.612 529.301 451.19" stroke="#B5B5B5" stroke-linecap="round" stroke-linejoin="round"/>
<path d="M522.722 355.901C522.13 362.562 525.6 368.894 524.366 375.62" stroke="#B5B5B5" stroke-linecap="round" stroke-linejoin="round"/>
<path d="M573.655 259.792C568.984 265.58 564.182 271.287 562.159 278.688" stroke="#B5B5B5" stroke-linecap="round" stroke-linejoin="round"/>
<path d="M551.487 336.185C549.941 342.204 550.549 348.239 551.487 354.259" stroke="#B5B5B5" stroke-linecap="round" stroke-linejoin="round"/>
<path d="M1367.22 509.524C1361.81 515.626 1354.62 519.935 1349.97 526.776" stroke="#B5B5B5" stroke-linecap="round" stroke-linejoin="round"/>
<path d="M1187.32 270.467C1183.45 275.762 1176.91 275.384 1171.71 277.867" stroke="#B5B5B5" stroke-linecap="round" stroke-linejoin="round"/>
<path d="M476.722 175.179C478.745 182.135 483.909 187.003 488.217 192.43" stroke="#B5B5B5" stroke-linecap="round" stroke-linejoin="round"/>
<path d="M499.73 207.216C503.431 212.873 507.592 218.251 510.404 224.468" stroke="#B5B5B5" stroke-linecap="round" stroke-linejoin="round"/>
<path d="M647.596 115.2C642.827 118.193 637.202 118.539 631.989 120.134" stroke="#B5B5B5" stroke-linecap="round" stroke-linejoin="round"/>
<path d="M678.81 90.5645C673.465 95.0542 669.814 101.435 663.203 104.527" stroke="#B5B5B5" stroke-linecap="round" stroke-linejoin="round"/>
<path d="M1368.86 366.576C1373.11 371.674 1376.33 377.578 1381.18 382.183" stroke="#B5B5B5" stroke-linecap="round" stroke-linejoin="round"/>
<path d="M607.337 242.542C602.173 243.2 597.568 245.239 593.374 248.298" stroke="#B5B5B5" stroke-linecap="round" stroke-linejoin="round"/>
<path d="M728.919 40.4546C722.883 41.54 720.811 47.8881 715.779 50.3057" stroke="#B5B5B5" stroke-linecap="round" stroke-linejoin="round"/>
<path d="M700.995 66.7354C697.755 70.6824 694.631 74.6952 691.966 79.0533" stroke="#B5B5B5" stroke-linecap="round" stroke-linejoin="round"/>
<path d="M932.652 401.08C917.423 404.303 909.151 413.76 906.223 428.989C903.905 441.044 909.25 451.388 921.847 460.4C931.599 467.373 944.493 465.153 953.407 458.904C972.024 445.862 966.564 409.731 945.825 403.448C941.73 402.215 937.356 402.988 933.474 401.08" stroke="#B5B5B5" stroke-linecap="round" stroke-linejoin="round"/>
<path d="M247.533 253.214C230.018 255.615 214.674 263.69 199.001 271.173C187.456 276.682 175.105 279.807 162.097 279.544C153.611 279.363 145.108 279.33 136.638 279.544C127.692 279.791 120.291 282.767 115.16 290.924C109.832 299.394 111.493 307.387 116.213 314.738C126.195 330.247 133.316 346.989 140.026 364.059C151.801 394.007 181.437 411.901 208.096 411.72C224.788 411.605 238.8 403.908 251.529 394.353C272.416 378.68 288.977 358.813 301.509 336.036C308.038 324.145 310.324 310.462 309.057 296.746C307.544 280.35 296.312 270.285 283.55 262.457C273.041 256.01 261.068 252.573 248.355 253.198" stroke="#B5B5B5" stroke-linecap="round" stroke-linejoin="round"/>
<path d="M929.363 369.866C897.869 378.878 883.512 404.846 884.63 432.278C885.798 461.173 898.724 484.049 931.846 491.384C948.999 495.183 975.313 481.846 983.404 464.265C994.785 439.514 993.189 402.922 970.527 382.101C958.801 371.329 945.052 369.257 930.185 369.882" stroke="#B5B5B5" stroke-linecap="round" stroke-linejoin="round"/>
<path d="M254.095 228.562C233.669 229.779 216.302 240.683 197.537 247.014C173.378 255.171 149.729 256.224 125.077 250.912C111.936 248.083 97.612 245.123 85.0144 248.807C59.5891 256.257 48.7841 273.443 68.1903 297.076C89.9646 323.586 102.875 353.617 115.489 384.535C122.231 401.079 131.425 416.72 148.134 425.65C169.168 436.899 190.893 443.214 214.674 433.988C230.988 427.656 248.174 425.814 265.574 424.778C293.236 423.15 305.801 402.592 309.304 382.2C311.458 369.651 314.632 357.481 321.095 345.838C332.854 324.655 338.002 301.746 333.94 276.995C329.466 249.695 313.185 239.367 294.272 233.66C281.559 229.828 268.337 227.74 254.901 228.562" stroke="#B5B5B5" stroke-linecap="round" stroke-linejoin="round"/>
<path d="M935.942 340.296C910.006 343.832 893.347 360.936 877.493 379.618C870.273 388.137 861.688 395.702 857.199 406.063C848.877 425.289 852.544 444.366 860.471 462.654C874.319 494.641 901.553 510.117 933.541 517.501C974.82 527.023 1008.4 500.381 1015.38 461.831C1020.14 435.502 1019.93 408.678 1008.04 383.927C993.897 354.505 970.33 338.816 936.764 340.296" stroke="#B5B5B5" stroke-linecap="round" stroke-linejoin="round"/>
<path d="M224.525 203.926C218.259 206.738 211.335 206.294 204.774 207.889C185.779 212.494 167.556 219.928 148.134 222.839C135.684 224.697 123.449 223.283 111.147 221.227C89.9154 217.675 69.0126 210.438 47.0902 213.876C19.1158 218.267 0.0220703 239.827 16.6818 271.288C21.78 280.926 29.8549 288.244 36.384 296.763C51.1195 315.972 60.3621 338.108 70.1145 359.998C80.1958 382.627 87.7939 406.737 104.667 425.65C125.258 448.723 148.446 468.244 180.154 474.181C196.995 477.339 213.227 474.51 227.683 465.794C243.076 456.502 258.963 451.568 277.103 451.733C289.437 451.831 302.512 452.045 313.958 446.881C334.318 437.671 345.452 420.979 346.817 398.629C348.692 368.072 352.211 338.108 363.098 308.999C378.64 267.424 363.098 241.192 327.986 222.921C303.383 210.126 276.905 204.173 249.177 203.942C241.234 203.877 233.291 203.942 225.347 203.942" stroke="#B5B5B5" stroke-linecap="round" stroke-linejoin="round"/>
<path d="M229.458 286.072C213.868 290.003 198.178 293.522 182.653 297.617C171.865 300.463 162.277 304.886 155.337 314.688C149.071 323.52 149.515 332.203 153.166 341.084C163.806 366.986 184.429 380.34 211.417 381.837C236.563 383.235 255.246 370.44 269.093 349.471C276.362 338.436 281.098 326.891 279.339 314.063C277.086 297.617 262.186 286.533 244.26 286.122C239.605 286.007 234.951 286.105 230.297 286.105" stroke="#B5B5B5" stroke-linecap="round" stroke-linejoin="round"/>
<path d="M226.992 304.969C213.573 307.337 201.896 313.044 192.489 323.043C184.118 331.941 184.43 341.446 194.199 348.386C205.991 356.757 225.233 361.79 238.554 351.889C247.912 344.949 251.744 335.295 253.026 324.655C253.865 317.665 245.264 308.554 237.633 306.68C234.426 305.89 231.203 304.772 227.798 304.969" stroke="#B5B5B5" stroke-linecap="round" stroke-linejoin="round"/>
<path d="M1183.21 519.375C1170.84 524.342 1159.01 530.065 1149.48 539.867C1132.55 557.234 1131.04 575.324 1144.38 595.915C1146.76 599.599 1149.57 602.871 1152.11 606.374C1158.45 615.14 1162.98 614.548 1168.44 604.812C1171.94 598.562 1173.11 591.112 1176.89 585.241C1181.91 577.462 1188.09 570.407 1194.57 563.582C1202.2 555.523 1208.96 546.643 1208.01 534.16C1207.27 524.441 1203.6 519.951 1193.91 519.408C1190.64 519.227 1187.33 519.375 1184.06 519.375" stroke="#B5B5B5" stroke-linecap="round" stroke-linejoin="round"/>
</svg>
